<?xml version="1.0" standalone="no"?>
<!DOCTYPE svg PUBLIC "-//W3C//DTD SVG 20010904//EN"
 "http://www.w3.org/TR/2001/REC-SVG-20010904/DTD/svg10.dtd">
<svg version="1.0" xmlns="http://www.w3.org/2000/svg"
 width="700.000000pt" height="700.000000pt" viewBox="0 0 700.000000 700.000000"
 preserveAspectRatio="xMidYMid meet">
<metadata>
Created by potrace 1.14, written by Peter Selinger 2001-2017
</metadata>
<g transform="translate(0.000000,700.000000) scale(0.100000,-0.100000)"
fill="#000000" stroke="none">
<path d="M0 3500 l0 -3500 3500 0 3500 0 0 3500 0 3500 -3500 0 -3500 0 0
-3500z m2256 1039 c632 -446 1150 -814 1152 -818 2 -6 -2247 -1601 -2305
-1635 -10 -6 -13 323 -13 1628 0 924 4 1636 9 1636 5 0 525 -365 1157 -811z
m2461 0 c631 -445 1149 -814 1151 -818 2 -7 -2282 -1628 -2310 -1639 -4 -2 -8
732 -8 1632 0 988 4 1636 9 1636 5 0 526 -365 1158 -811z"/>
</g>
</svg>
